<svg aria-hidden="true" style="position: absolute; width: 0; height: 0; overflow: hidden;" version="1.1" xmlns="http://www.w3.org/2000/svg" xmlns:xlink="http://www.w3.org/1999/xlink">
<defs>
<symbol id="icon-icon" viewBox="0 0 40 32">
<path fill="#3f4c9a" style="fill: var(--color1, #3f4c9a)" d="M13.006 14.772c1.548 0.681 2.756 1.703 3.623 3.066s1.301 2.973 1.301 4.831c0 2.663-0.836 4.831-2.508 6.503-1.672 1.61-3.809 2.415-6.41 2.415s-4.769-0.836-6.503-2.508c-1.672-1.672-2.508-3.809-2.508-6.41 0-1.239 0.155-2.477 0.465-3.716s0.991-3.097 2.044-5.574l5.388-13.378h9.197l-4.088 14.772zM34.932 14.772c1.548 0.681 2.756 1.703 3.623 3.066s1.301 2.973 1.301 4.831c0 2.663-0.836 4.831-2.508 6.503-1.672 1.61-3.809 2.415-6.41 2.415s-4.769-0.836-6.503-2.508c-1.672-1.672-2.508-3.809-2.508-6.41 0-1.239 0.155-2.477 0.465-3.716s0.991-3.097 2.044-5.574l5.388-13.378h9.197l-4.088 14.772z"></path>
</symbol>
<symbol id="icon-calendar" viewBox="0 0 32 32">
<path fill="none"   stroke-linejoin="round" stroke-linecap="round" stroke-miterlimit="4" stroke-width="2.4" d="M25.333 5.333h-18.667c-1.473 0-2.667 1.194-2.667 2.667v18.667c0 1.473 1.194 2.667 2.667 2.667h18.667c1.473 0 2.667-1.194 2.667-2.667v-18.667c0-1.473-1.194-2.667-2.667-2.667z"></path>
<path fill="none"   stroke-linejoin="round" stroke-linecap="round" stroke-miterlimit="4" stroke-width="2.4" d="M21.333 2.667v5.333"></path>
<path fill="none"   stroke-linejoin="round" stroke-linecap="round" stroke-miterlimit="4" stroke-width="2.4" d="M10.667 2.667v5.333"></path>
<path fill="none"   stroke-linejoin="round" stroke-linecap="round" stroke-miterlimit="4" stroke-width="2.4" d="M4 13.333h24"></path>
</symbol>
<symbol id="icon-clock" viewBox="0 0 32 32">
<path fill="none"  stroke-linejoin="round" stroke-linecap="round" stroke-miterlimit="4" stroke-width="2.4" d="M16 29.333c7.364 0 13.333-5.969 13.333-13.333s-5.97-13.333-13.333-13.333c-7.364 0-13.333 5.97-13.333 13.333s5.97 13.333 13.333 13.333z"></path>
<path fill="none"  stroke-linejoin="round" stroke-linecap="round" stroke-miterlimit="4" stroke-width="2.4" d="M16 8v8l5.333 2.667"></path>
</symbol>
<symbol id="icon-map" viewBox="0 0 32 32">
<path fill="none"  stroke-linejoin="round" stroke-linecap="round" stroke-miterlimit="4" stroke-width="2.4" d="M28 13.333c0 9.333-12 17.333-12 17.333s-12-8-12-17.333c0-3.183 1.264-6.235 3.515-8.485s5.303-3.515 8.485-3.515c3.183 0 6.235 1.264 8.485 3.515s3.515 5.303 3.515 8.485z"></path>
<path fill="none"  stroke-linejoin="round" stroke-linecap="round" stroke-miterlimit="4" stroke-width="2.4" d="M16 17.333c2.209 0 4-1.791 4-4s-1.791-4-4-4c-2.209 0-4 1.791-4 4s1.791 4 4 4z"></path>
</symbol>
<symbol id="icon-vector" viewBox="0 0 25 32">
<path  d="M0 0l24.889 16-24.889 16v-32z"></path>
</symbol>
<symbol id="icon-left" viewBox="0 0 17 32">
<path fill="none"  stroke-linejoin="round" stroke-linecap="round" stroke-miterlimit="4" stroke-width="4.2667" d="M14.933 28.8l-12.8-12.8 12.8-12.8"></path>
</symbol>
<symbol id="icon-right" viewBox="0 0 17 32">
<path fill="none"  stroke-linejoin="round" stroke-linecap="round" stroke-miterlimit="4" stroke-width="4.2667" d="M2.133 28.8l12.8-12.8-12.8-12.8"></path>
</symbol>
<symbol id="icon-book" viewBox="0 0 23 32">
<path  d="M4.008 2.112h17.522c0.498 0 0.929-0.398 0.929-0.929s-0.431-0.896-0.929-0.896h-17.522c-2.024 0-3.684 1.493-3.916 3.451-0.033 0.066-0.033 0.166-0.033 0.265v24.823c0 1.593 1.294 2.887 2.887 2.887h17.953c0.664 0 1.228-0.564 1.228-1.228v-22.865c0-0.664-0.564-1.228-1.228-1.228h-16.891c-1.161 0-2.157-0.996-2.157-2.157s0.996-2.124 2.157-2.124zM4.008 8.218h16.294v21.67h-17.356c-0.597 0-1.062-0.465-1.062-1.062v-21.239c0.597 0.398 1.327 0.631 2.124 0.631z"></path>
<path  d="M15.457 26.138h-8.429c-0.498 0-0.929 0.398-0.929 0.929s0.398 0.929 0.929 0.929h8.396c0.498 0 0.929-0.398 0.929-0.929s-0.398-0.929-0.896-0.929z"></path>
<path  d="M6.165 14.092h10.121c0.365 0 0.664-0.299 0.664-0.664v-1.991c0-0.365-0.299-0.664-0.664-0.664h-10.121c-0.365 0-0.664 0.299-0.664 0.664v1.991c0 0.365 0.299 0.664 0.664 0.664z"></path>
</symbol>
<symbol id="icon-compass" viewBox="0 0 23 31">
<path   d="M23.399 26.005l-3.717-8.23c1.261-1.161 2.257-2.622 2.92-4.281 0.166-0.465-0.066-0.996-0.531-1.195s-0.996 0.066-1.195 0.531c-0.465 1.195-1.161 2.29-2.024 3.186l-2.522-5.608c0.398-0.73 0.597-1.527 0.597-2.389 0-2.456-1.726-4.48-4.015-4.978v-1.593c0-0.564-0.465-1.029-1.029-1.029s-1.029 0.465-1.029 1.029v1.593c-2.29 0.498-4.015 2.522-4.015 4.978 0 0.863 0.232 1.692 0.597 2.389l-2.522 5.608c-0.863-0.896-1.527-1.958-2.024-3.186-0.199-0.465-0.697-0.697-1.195-0.531-0.465 0.199-0.697 0.697-0.531 1.195 0.664 1.692 1.659 3.119 2.92 4.281l-3.717 8.23-0.133 4.447c0 0.431 0.232 0.83 0.631 1.029 0.133 0.066 0.299 0.1 0.431 0.1 0.265 0 0.531-0.1 0.73-0.299l3.219-3.053 3.518-7.799c0.996 0.265 2.024 0.431 3.086 0.431s2.091-0.166 3.086-0.431l3.518 7.799 3.219 3.053c0.199 0.199 0.465 0.299 0.73 0.299 0.133 0 0.299-0.033 0.431-0.1 0.398-0.166 0.664-0.564 0.631-1.029l-0.066-4.447zM10.224 12.798l-2.389 5.31c-0.531-0.232-1.029-0.531-1.527-0.863l2.389-5.276c0.465 0.365 0.962 0.631 1.527 0.83zM15.069 11.968l2.389 5.276c-0.465 0.332-0.996 0.631-1.527 0.863l-2.389-5.31c0.564-0.199 1.062-0.465 1.527-0.83zM11.884 4.767c1.792 0 3.252 1.46 3.252 3.252s-1.46 3.252-3.252 3.252c-1.792 0-3.252-1.46-3.252-3.252s1.46-3.252 3.252-3.252zM3.786 27.134l-1.659 1.56 0.066-2.257 3.385-7.5c0.498 0.332 0.996 0.597 1.526 0.83l-3.318 7.367zM11.884 19.003c-0.796 0-1.56-0.1-2.323-0.265l2.323-5.144 2.323 5.144c-0.763 0.166-1.527 0.265-2.323 0.265zM19.981 27.134l-3.319-7.334c0.531-0.232 1.029-0.531 1.527-0.83l3.385 7.467 0.066 2.257-1.659-1.56z"></path>
</symbol>
<symbol id="icon-document" viewBox="0 0 32 32">
<path  d="M30.212 18.174h-3.717v-13.905c0-2.157-1.759-3.949-3.916-3.949h-0.033c-0.133 0-0.299 0-0.431 0h-16.028c-3.219 0-5.874 2.622-5.874 5.874v2.19c0 0.929 0.763 1.692 1.692 1.692h3.252v15.166c0 1.759 1.427 3.219 3.219 3.219h3.949v2.124c0 0.398 0.232 0.797 0.597 0.962 0.166 0.1 0.332 0.133 0.531 0.133s0.431-0.066 0.597-0.199l2.323-1.56 2.323 1.56c0.332 0.232 0.763 0.232 1.128 0.066 0.365-0.199 0.597-0.564 0.597-0.962v-2.157c0.066 0.033 0.166 0.033 0.232 0.033h7.666c0.133 0 0.232 0 0.332-0.033h0.066c0.066 0 0.166-0.033 0.265-0.033 0.033 0 0.066 0 0.066 0 0.033 0 0.066 0 0.066-0.033 0.066 0 0.1-0.033 0.166-0.033 0.033 0 0.1-0.033 0.133-0.033s0.066 0 0.066-0.033c0.1-0.033 0.199-0.066 0.265-0.099 0.033 0 0.066-0.033 0.066-0.033 0.033 0 0.033-0.033 0.066-0.033 0.1-0.033 0.166-0.1 0.265-0.133 0.066-0.033 0.166-0.1 0.232-0.166 0 0 0.033 0 0.033-0.033l0.066-0.066c0.066-0.066 0.133-0.1 0.199-0.166 0.1-0.1 0.232-0.199 0.299-0.332 0.066-0.066 0.166-0.199 0.232-0.332 0-0.033 0.033-0.033 0.033-0.066s0.033-0.033 0.033-0.066c0-0.033 0.033-0.033 0.033-0.066 0.033-0.066 0.066-0.1 0.1-0.166s0.066-0.133 0.1-0.199c0-0.033 0.033-0.066 0.033-0.1 0.066-0.199 0.133-0.398 0.166-0.597 0.033-0.232 0.066-0.465 0.066-0.73v-5.011c0.133-0.929-0.631-1.692-1.56-1.692zM2.038 6.161c0-2.223 1.825-4.049 4.049-4.049h12.776c-0.465 0.664-0.73 1.493-0.73 2.356v3.717h-16.095v-2.024zM16.341 24.047c-1.958 0-3.551-1.593-3.551-3.551s1.593-3.518 3.551-3.518c1.958 0 3.551 1.593 3.551 3.551s-1.593 3.518-3.551 3.518zM16.341 27.665l-2.223 1.46v-3.717c0.664 0.299 1.427 0.498 2.223 0.498s1.527-0.166 2.223-0.498v3.75l-2.223-1.493zM20.39 26.603v-2.555c0.83-0.929 1.327-2.157 1.327-3.518 0-2.953-2.389-5.376-5.376-5.376-2.953 0-5.376 2.389-5.376 5.376 0 1.327 0.498 2.555 1.327 3.518v2.522h-3.949c-0.763 0-1.394-0.631-1.394-1.394v-15.166h11.283c0.929 0 1.692-0.763 1.692-1.692v-3.816c0-1.228 0.962-2.29 2.19-2.356h0.431c1.161 0 2.124 0.962 2.124 2.124v20.542c0 0.631 0.166 1.261 0.465 1.792h-4.513c-0.1-0.033-0.166-0.033-0.232 0zM30.013 25.143c-0.033 0.1-0.066 0.232-0.1 0.332-0.033 0.066-0.066 0.1-0.066 0.166l-0.066 0.1c-0.033 0.033-0.066 0.1-0.1 0.133l-0.033 0.033c-0.033 0.033-0.066 0.1-0.133 0.133-0.033 0.033-0.066 0.066-0.133 0.1l-0.033 0.033c-0.1 0.066-0.199 0.133-0.299 0.166-0.033 0.033-0.066 0.033-0.1 0.033s-0.066 0.033-0.1 0.033l-0.066 0.033c-0.033 0-0.1 0.033-0.133 0.033h-0.033c-0.033 0-0.1 0.033-0.133 0.033h-0.066c-0.066 0-0.1 0-0.166 0-0.996 0-1.792-0.796-1.792-1.792v-4.712h3.551c0 0 0.033 5.044 0 5.144z"></path>
</symbol>
<symbol id="icon-microscope" viewBox="0 0 26 32">
<path   d="M2.882 31.421h22.798c0-0.962-4.48-1.759-10.221-1.858v-2.024c0.033 0 0.066 0 0.1 0 5.442-0.664 9.591-5.31 9.591-10.852 0-3.086-1.327-6.040-3.617-8.097-0.265-0.232-0.564-0.465-0.83-0.697l1.427-2.588c0.531-0.962 0.166-2.157-0.796-2.688l-3.252-1.792c-0.962-0.531-2.157-0.166-2.688 0.796l-6.372 11.714c-0.531 0.962-0.166 2.157 0.796 2.688l3.252 1.792c0.299 0.133 0.631 0.199 0.962 0.199 0.199 0 0.365-0.033 0.564-0.066 0.498-0.133 0.929-0.498 1.161-0.962l4.049-7.433c0.166 0.133 0.332 0.265 0.498 0.431 1.892 1.726 2.987 4.181 2.987 6.737 0 4.58-3.451 8.462-7.998 8.993-0.796 0.1-1.593 0.066-2.389-0.033-2.522-0.365-4.712-1.759-6.106-3.816h8.695c0.498 0 0.929-0.398 0.929-0.929s-0.398-0.929-0.896-0.929h-14.203c-0.498 0-0.929 0.398-0.929 0.929s0.398 0.929 0.929 0.929h3.352c1.626 3.020 4.546 5.111 7.998 5.641 0.033 0 0.1 0 0.133 0v2.091c-5.608 0.066-9.922 0.863-9.922 1.825zM14.165 16.122c-0.033 0.033-0.066 0.066-0.1 0.066s-0.066 0-0.1 0l-3.252-1.792c-0.066-0.033-0.1-0.133-0.066-0.199l6.338-11.648c0.033-0.066 0.133-0.1 0.199-0.066l3.252 1.792c0.066 0.033 0.1 0.133 0.066 0.199l-6.338 11.648z"></path>
</symbol>
<symbol id="icon-facebook" viewBox="0 0 32 32">
<path stroke-linejoin="round" stroke-linecap="round" stroke-miterlimit="4" stroke-width="2.6667" d="M24 2.667h-4c-1.768 0-3.464 0.702-4.714 1.953s-1.953 2.946-1.953 4.714v4h-4v5.333h4v10.667h5.333v-10.667h4l1.333-5.333h-5.333v-4c0-0.354 0.141-0.693 0.391-0.943s0.589-0.391 0.943-0.391h4v-5.333z"></path>
</symbol>
<symbol id="icon-instagram" viewBox="0 0 32 32">
<path stroke-linejoin="round" stroke-linecap="round" stroke-miterlimit="4" stroke-width="2.6667" d="M22.667 2.667h-13.333c-3.682 0-6.667 2.985-6.667 6.667v13.333c0 3.682 2.985 6.667 6.667 6.667h13.333c3.682 0 6.667-2.985 6.667-6.667v-13.333c0-3.682-2.985-6.667-6.667-6.667z"></path>
<path stroke-linejoin="round" stroke-linecap="round" stroke-miterlimit="4" stroke-width="2.6667" d="M21.333 15.16c0.165 1.11-0.025 2.243-0.542 3.239s-1.334 1.803-2.336 2.307c-1.002 0.504-2.137 0.68-3.245 0.502s-2.131-0.701-2.924-1.494c-0.793-0.793-1.316-1.816-1.494-2.924s-0.003-2.243 0.502-3.245c0.504-1.002 1.312-1.819 2.308-2.336s2.129-0.706 3.239-0.542c1.132 0.168 2.18 0.695 2.989 1.504s1.337 1.857 1.504 2.989z"></path>
<path stroke-linejoin="round" stroke-linecap="round" stroke-miterlimit="4" stroke-width="2.6667" d="M23.333 8.667h0.013"></path>
</symbol>
<symbol id="icon-twitter" viewBox="0 0 32 32">
<path stroke-linejoin="round" stroke-linecap="round" stroke-miterlimit="4" stroke-width="2.6667" d="M30.667 4c-1.277 0.901-2.691 1.589-4.187 2.040-0.803-0.923-1.87-1.578-3.057-1.875s-2.437-0.222-3.58 0.214c-1.143 0.436-2.125 1.213-2.812 2.226s-1.047 2.212-1.031 3.435v1.333c-2.343 0.061-4.665-0.459-6.759-1.513s-3.894-2.609-5.241-4.527c0 0-5.333 12 6.667 17.333-2.746 1.864-6.017 2.799-9.333 2.667 12 6.667 26.667 0 26.667-15.333-0.001-0.371-0.037-0.742-0.107-1.107 1.361-1.342 2.321-3.036 2.773-4.893z"></path>
</symbol>
<symbol id="icon-youtube" viewBox="0 0 32 32">
<path stroke-linejoin="round" stroke-linecap="round" stroke-miterlimit="4" stroke-width="2.6667" d="M30.053 8.56c-0.158-0.633-0.481-1.213-0.935-1.681s-1.024-0.808-1.651-0.986c-2.293-0.56-11.467-0.56-11.467-0.56s-9.173 0-11.467 0.613c-0.628 0.178-1.197 0.518-1.652 0.986s-0.777 1.048-0.935 1.681c-0.42 2.327-0.625 4.688-0.613 7.053-0.015 2.383 0.19 4.762 0.613 7.107 0.175 0.613 0.504 1.171 0.958 1.619s1.014 0.772 1.629 0.941c2.293 0.613 11.467 0.613 11.467 0.613s9.173 0 11.467-0.613c0.628-0.178 1.197-0.518 1.651-0.986s0.777-1.048 0.935-1.681c0.417-2.31 0.622-4.653 0.613-7 0.015-2.383-0.19-4.762-0.613-7.107v0z"></path>
<path stroke-linejoin="round" stroke-linecap="round" stroke-miterlimit="4" stroke-width="2.6667" d="M13 20.027l7.667-4.36-7.667-4.36v8.72z"></path>
</symbol>
<symbol id="icon-briefcase" viewBox="0 0 32 32">
<path fill="none" stroke="#fff" style="stroke: var(--color3, #fff)" stroke-linejoin="round" stroke-linecap="round" stroke-miterlimit="4" stroke-width="2.6667" d="M26.667 9.333h-21.333c-1.473 0-2.667 1.194-2.667 2.667v13.333c0 1.473 1.194 2.667 2.667 2.667h21.333c1.473 0 2.667-1.194 2.667-2.667v-13.333c0-1.473-1.194-2.667-2.667-2.667z"></path>
<path fill="none" stroke="#fff" style="stroke: var(--color3, #fff)" stroke-linejoin="round" stroke-linecap="round" stroke-miterlimit="4" stroke-width="2.6667" d="M21.333 28v-21.333c0-0.707-0.281-1.386-0.781-1.886s-1.178-0.781-1.886-0.781h-5.333c-0.707 0-1.386 0.281-1.886 0.781s-0.781 1.178-0.781 1.886v21.333"></path>
</symbol>
<symbol id="icon-chain" viewBox="0 0 32 32">
<path fill="none" stroke="#fff" style="stroke: var(--color3, #fff)" stroke-linejoin="round" stroke-linecap="round" stroke-miterlimit="4" stroke-width="2.6667" d="M13.333 17.333c0.573 0.765 1.303 1.399 2.142 1.857s1.767 0.731 2.72 0.799c0.953 0.068 1.911-0.069 2.806-0.403s1.709-0.857 2.385-1.533l4-4c1.214-1.257 1.886-2.941 1.871-4.689s-0.716-3.42-1.952-4.656c-1.236-1.236-2.908-1.937-4.656-1.952s-3.432 0.657-4.689 1.871l-2.293 2.28"></path>
<path fill="none" stroke="#fff" style="stroke: var(--color3, #fff)" stroke-linejoin="round" stroke-linecap="round" stroke-miterlimit="4" stroke-width="2.6667" d="M18.667 14.667c-0.573-0.765-1.303-1.399-2.142-1.857s-1.767-0.731-2.72-0.799c-0.954-0.068-1.911 0.069-2.806 0.403s-1.709 0.857-2.385 1.533l-4 4c-1.214 1.257-1.886 2.941-1.871 4.689s0.716 3.42 1.952 4.656c1.236 1.236 2.908 1.937 4.656 1.952s3.432-0.657 4.689-1.871l2.28-2.28"></path>
</symbol>
<symbol id="icon-message" viewBox="0 0 32 32">
<path fill="none" stroke="#fff" style="stroke: var(--color3, #fff)" stroke-linejoin="round" stroke-linecap="round" stroke-miterlimit="4" stroke-width="2.6667" d="M28 20c0 0.707-0.281 1.385-0.781 1.886s-1.178 0.781-1.886 0.781h-16l-5.333 5.333v-21.333c0-0.707 0.281-1.386 0.781-1.886s1.178-0.781 1.886-0.781h18.667c0.707 0 1.385 0.281 1.886 0.781s0.781 1.178 0.781 1.886v13.333z"></path>
</symbol>
<symbol id="icon-openBook" viewBox="0 0 32 32">
<path fill="none" stroke="#fff" style="stroke: var(--color3, #fff)" stroke-linejoin="round" stroke-linecap="round" stroke-miterlimit="4" stroke-width="2.6667" d="M2.667 4h8c1.415 0 2.771 0.562 3.771 1.562s1.562 2.357 1.562 3.771v18.667c0-1.061-0.421-2.078-1.172-2.828s-1.768-1.172-2.828-1.172h-9.333v-20z"></path>
<path fill="none" stroke="#fff" style="stroke: var(--color3, #fff)" stroke-linejoin="round" stroke-linecap="round" stroke-miterlimit="4" stroke-width="2.6667" d="M29.333 4h-8c-1.415 0-2.771 0.562-3.771 1.562s-1.562 2.357-1.562 3.771v18.667c0-1.061 0.421-2.078 1.172-2.828s1.768-1.172 2.828-1.172h9.333v-20z"></path>
</symbol>
<symbol id="icon-pen" viewBox="0 0 32 32">
<path fill="none" stroke="#fff" style="stroke: var(--color3, #fff)" stroke-linejoin="round" stroke-linecap="round" stroke-miterlimit="4" stroke-width="2.6667" d="M16 25.333l9.333-9.333 4 4-9.333 9.333-4-4z"></path>
<path fill="none" stroke="#fff" style="stroke: var(--color3, #fff)" stroke-linejoin="round" stroke-linecap="round" stroke-miterlimit="4" stroke-width="2.6667" d="M24 17.333l-2-10-19.333-4.667 4.667 19.333 10 2 6.667-6.667z"></path>
<path fill="none" stroke="#fff" style="stroke: var(--color3, #fff)" stroke-linejoin="round" stroke-linecap="round" stroke-miterlimit="4" stroke-width="2.6667" d="M2.667 2.667l10.115 10.115"></path>
<path fill="none" stroke="#fff" style="stroke: var(--color3, #fff)" stroke-linejoin="round" stroke-linecap="round" stroke-miterlimit="4" stroke-width="2.6667" d="M14.667 17.333c1.473 0 2.667-1.194 2.667-2.667s-1.194-2.667-2.667-2.667c-1.473 0-2.667 1.194-2.667 2.667s1.194 2.667 2.667 2.667z"></path>
</symbol>
<symbol id="icon-logo" viewBox="0 0 72 32">
<path d="M16 5.12c6.009 0 10.88 4.871 10.88 10.88 0 6.005-4.865 10.874-10.87 10.88-0.003 0-0.007 0-0.010 0h-0.004c-6.007-0.002-10.876-4.873-10.876-10.88 0-6.009 4.871-10.88 10.88-10.88zM27.731 26.88c2.649-2.855 4.269-6.678 4.269-10.88 0-8.837-7.163-16-16-16s-16 7.163-16 16c0 8.837 7.163 16 16 16 0.004 0 0.008 0 0.013 0h38.802c0.004 0 0.009 0 0.013 0 8.837 0 16-7.163 16-16s-7.163-16-16-16c-8.837 0-16 7.163-16 16 0 4.202 1.62 8.025 4.269 10.88h-15.365zM54.831 26.88h-0.014c-6.004-0.006-10.87-4.875-10.87-10.88 0-6.009 4.871-10.88 10.88-10.88s10.88 4.871 10.88 10.88c0 6.008-4.869 10.878-10.876 10.88z"></path>
</symbol>
</defs>
</svg>
