<svg aria-hidden="true" style="position: absolute; width: 0; height: 0; overflow: hidden;" version="1.1" xmlns="http://www.w3.org/2000/svg" xmlns:xlink="http://www.w3.org/1999/xlink">
<defs>
<symbol id="icon-icon" viewBox="0 0 40 32">
<path fill="#3f4c9a" style="fill: var(--color1, #3f4c9a)" d="M13.006 14.772c1.548 0.681 2.756 1.703 3.623 3.066s1.301 2.973 1.301 4.831c0 2.663-0.836 4.831-2.508 6.503-1.672 1.61-3.809 2.415-6.41 2.415s-4.769-0.836-6.503-2.508c-1.672-1.672-2.508-3.809-2.508-6.41 0-1.239 0.155-2.477 0.465-3.716s0.991-3.097 2.044-5.574l5.388-13.378h9.197l-4.088 14.772zM34.932 14.772c1.548 0.681 2.756 1.703 3.623 3.066s1.301 2.973 1.301 4.831c0 2.663-0.836 4.831-2.508 6.503-1.672 1.61-3.809 2.415-6.41 2.415s-4.769-0.836-6.503-2.508c-1.672-1.672-2.508-3.809-2.508-6.41 0-1.239 0.155-2.477 0.465-3.716s0.991-3.097 2.044-5.574l5.388-13.378h9.197l-4.088 14.772z"></path>
</symbol>
</defs>
</svg>
