<svg width="38" height="54" viewBox="0 0 38 54" fill="none" xmlns="http://www.w3.org/2000/svg">
<path d="M6.764 3.56389H36.332C37.172 3.56389 37.9 2.89189 37.9 1.99589C37.9 1.09989 37.172 0.483887 36.332 0.483887H6.764C3.348 0.483887 0.547999 3.00389 0.155999 6.30789C0.0999987 6.41989 0.0999985 6.58789 0.0999985 6.75589V48.6439C0.0999985 51.3319 2.284 53.5159 4.972 53.5159H35.268C36.388 53.5159 37.34 52.5639 37.34 51.4439V12.8599C37.34 11.7399 36.388 10.7879 35.268 10.7879H6.764C4.804 10.7879 3.124 9.10789 3.124 7.14789C3.124 5.18789 4.804 3.56389 6.764 3.56389ZM6.764 13.8679H34.26V50.4359H4.972C3.964 50.4359 3.18 49.6519 3.18 48.6439V12.8039C4.188 13.4759 5.42 13.8679 6.764 13.8679Z" fill="#1B63F0"/>
<path d="M26.0844 44.1079H11.8604C11.0204 44.1079 10.2924 44.7799 10.2924 45.6759C10.2924 46.5719 10.9644 47.2439 11.8604 47.2439H26.0284C26.8684 47.2439 27.5964 46.5719 27.5964 45.6759C27.5964 44.7799 26.9244 44.1079 26.0844 44.1079Z" fill="#1B63F0"/>
<path d="M10.4036 23.7799H27.4836C28.0996 23.7799 28.6036 23.2759 28.6036 22.6599V19.2999C28.6036 18.6839 28.0996 18.1799 27.4836 18.1799H10.4036C9.78759 18.1799 9.28359 18.6839 9.28359 19.2999V22.6599C9.28359 23.2759 9.78759 23.7799 10.4036 23.7799Z" fill="#1B63F0"/>
</svg>
